<svg viewBox="-130 -130 260 260" xmlns="http://www.w3.org/2000/svg">
    <path fill="#fff" d="M-150-150h300v300h-300z" />
    <path fill="#144c20"
        d="M80.791-29.371c-.063 1.035-.203 1.75-.392 2.101-.202.378-.791.653-1.763.824-2.111.468-3.515-.333-4.208-2.399-2.452-7.605-5.373-12.654-8.748-15.183-4.684-3.479-12.879-5.224-24.61-5.224-4.743 0-7.349.517-7.803 1.543-.162.338-.257.828-.257 1.458v85.496c0 3.654.846 6.223 2.57 7.69 1.719 1.44 4.81 3.29 9.904 4.496 2.174.463 4.365.9 4.653 1.075 2.07 0 2.268 4.757-1.692 4.757-.113.072-46.688-.036-46.688-.036s-3.253-1.976-.332-4.604l3.451-1.543s8.235-2.763 9.95-4.541c1.953-2.002 2.916-5.238 2.916-9.693v-83.101c0-1.661-1.031-2.633-3.092-2.912-.22-.067-1.912-.09-5.049-.09-10.867 0-18.86 1.881-24.021 5.665-3.888 2.8-7.33 7.939-10.363 15.445-.977 2.34-2.327 3.1-4.037 2.308-1.944-.454-2.65-1.525-2.146-3.172 2.002-6.183 3.006-14.895 3.006-26.163 0-1.314 1.741-2.637 5.233-2.399l96.147.261c3.19-.468 4.932.054 5.22 1.544 1.602 7.6 2.313 16.402 2.151 26.397z" />
    <path fill="#ff725c"
        d="M-42.754-71.806C-54.932-65.04-67.26-45.795-67.26-45.795l-11.124-12.63L-85-52.11l16.086 19.996 5.863-.226C-55.533-54.893-38.92-70-38.92-70l-3.834-1.805zm0 50C-54.932-15.04-67.26 4.205-67.26 4.205l-11.124-12.63L-85-2.11l16.086 19.996 5.863-.226C-55.533-4.893-38.92-20-38.92-20l-3.834-1.805zm0 50C-54.932 34.96-67.26 54.205-67.26 54.205l-11.124-12.63L-85 47.89l16.086 19.996 5.863-.226C-55.533 45.107-38.92 30-38.92 30l-3.834-1.805z" />
</svg>